<svg xmlns="http://www.w3.org/2000/svg" width="19.984" height="13.589" viewBox="0 0 19.984 13.589">
  <g id="credit-card" transform="translate(-4 -20.986)">
    <path id="Path_149" data-name="Path 149" d="M22.387,20.986H5.6a1.6,1.6,0,0,0-1.6,1.6v10.4a1.6,1.6,0,0,0,1.6,1.6H22.387a1.6,1.6,0,0,0,1.6-1.6c0-.016,0-9.187,0-9.2v-1.2A1.6,1.6,0,0,0,22.387,20.986Zm.8,11.992a.8.8,0,0,1-.8.8H5.6a.8.8,0,0,1-.8-.8V24.185H23.186Zm0-9.592H4.8v-.8a.8.8,0,0,1,.8-.8H22.387a.8.8,0,0,1,.8.8Z" fill="#1d1d25"/>
    <path id="Path_150" data-name="Path 150" d="M39.8,45.395h2.395a.8.8,0,0,0,.8-.8v-.8a.8.8,0,0,0-.8-.8H39.8a.8.8,0,0,0-.8.8v.8A.8.8,0,0,0,39.8,45.395Zm0-1.6h2.395v.8H39.8Z" transform="translate(-21.03 -13.227)" fill="#1d1d25"/>
  </g>
</svg>
