<svg xmlns="http://www.w3.org/2000/svg" width="18.184" height="21.07" viewBox="0 0 18.184 21.07">
  <g id="Line" transform="translate(-5.023 -2)">
    <path id="Path_133" data-name="Path 133" d="M14.111,2A7.183,7.183,0,0,0,6.928,9.183v5.6L5.338,17.18A1.954,1.954,0,0,0,6.961,20.2h4.276a2.873,2.873,0,0,0,5.746,0H21.26a1.954,1.954,0,0,0,1.623-3.031l-1.59-2.38v-5.6A7.183,7.183,0,0,0,14.111,2Zm0,20.113A1.915,1.915,0,0,1,12.2,20.2h3.831A1.915,1.915,0,0,1,14.111,22.113ZM22.084,17.7a.958.958,0,0,1,.168.551.991.991,0,0,1-.991.991H6.961a.991.991,0,0,1-.991-.991.958.958,0,0,1,.168-.551l1.666-2.5a.479.479,0,0,0,.081-.263V9.183a6.225,6.225,0,1,1,12.451,0V14.93a.479.479,0,0,0,.081.263Z" transform="translate(0 0)" fill="#1d1d25"/>
  </g>
</svg>
