<svg xmlns="http://www.w3.org/2000/svg" width="16.477" height="18.125" viewBox="0 0 16.477 18.125">
  <g id="Out" transform="translate(-6 -5)">
    <path id="Path_156" data-name="Path 156" d="M23.941,12.768l-1.647-1.647a.412.412,0,1,0-.583.583l.945.945H15.412a.412.412,0,0,0,0,.824h7.244l-.945.945a.412.412,0,1,0,.583.583l1.647-1.647a.413.413,0,0,0,0-.583Z" transform="translate(-1.585 -1.057)" fill="#1d1d25"/>
    <path id="Path_157" data-name="Path 157" d="M18.943,15v4.943H14v.824h5.355a.412.412,0,0,0,.412-.412V15Z" transform="translate(-1.409 -1.761)" fill="#1d1d25"/>
    <path id="Path_158" data-name="Path 158" d="M18.358,10.767V5.412A.412.412,0,0,0,17.946,5H6.412A.419.419,0,0,0,6,5.412V18.594a.411.411,0,0,0,.148.316l4.943,4.119a.412.412,0,0,0,.676-.316V9.531a.411.411,0,0,0-.148-.316L7.55,5.824h9.985v4.943ZM10.943,21.834,6.824,18.4V6.291l4.119,3.433Z" fill="#1d1d25"/>
  </g>
</svg>
