<svg xmlns="http://www.w3.org/2000/svg" width="19.747" height="18.125" viewBox="0 0 19.747 18.125">
  <g id="chat" transform="translate(0 -2.465)">
    <path id="Path_196" data-name="Path 196" d="M9.329,24.123h4.279a.329.329,0,0,0,0-.658H9.329a.329.329,0,0,0,0,.658Z" transform="translate(-6.038 -14.088)" fill="#fff"/>
    <path id="Path_197" data-name="Path 197" d="M17.886,29.465H9.329a.329.329,0,0,0,0,.658h8.557a.329.329,0,0,0,0-.658Z" transform="translate(-6.038 -18.114)"  fill="#fff"/>
    <path id="Path_198" data-name="Path 198" d="M17.886,35.465H9.329a.329.329,0,1,0,0,.658h8.557a.329.329,0,1,0,0-.658Z" transform="translate(-6.038 -22.139)"  fill="#fff"/>
    <path id="Path_199" data-name="Path 199" d="M17.8,2.488,6.559,2.465A1.954,1.954,0,0,0,4.608,4.417V6.1l-2.656.006A1.954,1.954,0,0,0,0,8.06v6.958A1.954,1.954,0,0,0,1.952,16.97h2v3.291a.329.329,0,0,0,.573.221l3.194-3.513,5.472-.022A1.954,1.954,0,0,0,15.14,15v-.037l1.731,1.9a.329.329,0,0,0,.573-.221V13.35H17.8A1.954,1.954,0,0,0,19.747,11.4V4.44A1.954,1.954,0,0,0,17.8,2.488ZM14.481,14.995a1.3,1.3,0,0,1-1.295,1.293l-5.618.023a.329.329,0,0,0-.242.108L4.608,19.409V16.64a.329.329,0,0,0-.329-.329H1.952A1.3,1.3,0,0,1,.658,15.018V8.06A1.3,1.3,0,0,1,1.952,6.767L4.937,6.76h0l8.25-.017a1.3,1.3,0,0,1,1.293,1.293v6.958Zm4.608-3.6A1.3,1.3,0,0,1,17.8,12.691h-.681a.329.329,0,0,0-.329.329v2.769l-1.646-1.81V8.037a1.954,1.954,0,0,0-1.952-1.952L5.266,6.1V4.416A1.3,1.3,0,0,1,6.559,3.123L17.8,3.146h0a1.3,1.3,0,0,1,1.293,1.293V11.4Z" transform="translate(0 0)"  fill="#fff"/>
  </g>
</svg>
