<svg id="Layer_2" data-name="Layer 2" xmlns="http://www.w3.org/2000/svg" xmlns:xlink="http://www.w3.org/1999/xlink" width="41.719" height="41.837" viewBox="0 0 41.719 41.837">
  <defs>
    <linearGradient id="linear-gradient" x1="0.146" y1="0.146" x2="0.854" y2="0.854" gradientUnits="objectBoundingBox">
      <stop offset="0" stop-color="#fae100"/>
      <stop offset="0.15" stop-color="#fcb720"/>
      <stop offset="0.3" stop-color="#ff7950"/>
      <stop offset="0.5" stop-color="#ff1c74"/>
      <stop offset="1" stop-color="#6c1cd1"/>
    </linearGradient>
  </defs>
  <g id="Circle" transform="translate(0 0)">
    <g id="_03.Instagram" data-name="03.Instagram" transform="translate(0 0)">
      <rect id="Background" width="41.719" height="41.719" rx="20.859" transform="translate(0 0.118)" fill="url(#linear-gradient)"/>
      <g id="Group_77" data-name="Group 77" transform="translate(0.004)">
        <path id="Shade" d="M36.674,7.156A74.58,74.58,0,0,1,23.922,23.919,74.68,74.68,0,0,1,7.168,36.662q-.526-.457-1.021-.952A20.917,20.917,0,1,1,35.724,6.125q.492.5.95,1.032Z" transform="translate(-0.016 0)" fill="#fff" opacity="0.1"/>
        <g id="Icon" transform="translate(9.904 9.909)">
          <path id="Path_181" data-name="Path 181" d="M51.964,36H42.055A6.055,6.055,0,0,0,36,42.055v9.909a6.055,6.055,0,0,0,6.055,6.055h9.909a6.055,6.055,0,0,0,6.055-6.055V42.055A6.055,6.055,0,0,0,51.964,36Zm4.129,15.094a5,5,0,0,1-5,5H42.925a5,5,0,0,1-5-5V42.925a5,5,0,0,1,5-5h8.169a5,5,0,0,1,5,5Z" transform="translate(-36 -36)" fill="#fff"/>
          <path id="Path_182" data-name="Path 182" d="M65.245,57.045l-.052-.052-.044-.044a5.549,5.549,0,0,0-3.919-1.618,5.648,5.648,0,0,0-5.609,5.689,5.711,5.711,0,0,0,1.651,4.021,5.557,5.557,0,0,0,3.969,1.651,5.706,5.706,0,0,0,4-9.647Zm-4.016,7.707a3.732,3.732,0,1,1,3.68-3.732A3.732,3.732,0,0,1,61.229,64.752Z" transform="translate(-50.219 -50.01)" fill="#fff"/>
          <path id="Path_183" data-name="Path 183" d="M95.408,50.829a1.343,1.343,0,0,1-1.335,1.354,1.324,1.324,0,0,1-.941-.394,1.357,1.357,0,0,1,.944-2.309,1.327,1.327,0,0,1,.851.308l.027.027a.84.84,0,0,1,.121.121l.03.033a1.354,1.354,0,0,1,.3.859Z" transform="translate(-77.123 -45.77)" fill="#fff"/>
        </g>
      </g>
    </g>
  </g>
</svg>
