<svg xmlns="http://www.w3.org/2000/svg" width="21.618" height="19.676" viewBox="0 0 21.618 19.676">
  <path id="share_1_" data-name="share (1)" d="M17.721,14.756a3.919,3.919,0,0,0-3.166,1.621L9.627,13.093a3.657,3.657,0,0,0,0-2.568l4.928-3.285A3.916,3.916,0,1,0,13.79,4.93a3.816,3.816,0,0,0,.043.427l-5.3,3.531a3.93,3.93,0,1,0,0,5.838l5.3,3.531a3.816,3.816,0,0,0-.043.427,3.93,3.93,0,1,0,3.93-3.93Zm0-11.791A1.965,1.965,0,1,1,15.756,4.93,1.965,1.965,0,0,1,17.721,2.965ZM5.93,13.773A1.965,1.965,0,1,1,7.9,11.808,1.965,1.965,0,0,1,5.93,13.773Zm11.791,6.878a1.965,1.965,0,1,1,1.965-1.965A1.965,1.965,0,0,1,17.721,20.652Z" transform="translate(22.617 -1.975) rotate(90)" fill="#fff"/>
</svg>
