<svg xmlns="http://www.w3.org/2000/svg" width="13.501" height="18.365" viewBox="0 0 13.501 18.365">
  <g id="docs" transform="translate(-67.798)">
    <g id="Group_85" data-name="Group 85" transform="translate(67.798)">
      <g id="Group_84" data-name="Group 84" transform="translate(0)">
        <path id="Path_191" data-name="Path 191" d="M81.193,4.938,76.362.106A.363.363,0,0,0,76.1,0H69.3a1.5,1.5,0,0,0-1.5,1.5V16.865a1.5,1.5,0,0,0,1.5,1.5H79.8a1.5,1.5,0,0,0,1.5-1.5V5.194A.363.363,0,0,0,81.193,4.938Zm-4.725-3.7L80.06,4.831H77.241a.774.774,0,0,1-.773-.773V1.239Zm4.105,15.626a.774.774,0,0,1-.773.773H69.3a.774.774,0,0,1-.773-.773V1.5A.774.774,0,0,1,69.3.726h6.445V4.058a1.5,1.5,0,0,0,1.5,1.5h3.332Z" transform="translate(-67.798)"/>
      </g>
    </g>
    <g id="Group_87" data-name="Group 87" transform="translate(71.282 9.219)">
      <g id="Group_86" data-name="Group 86">
        <path id="Path_192" data-name="Path 192" d="M171.1,257.012h-5.807a.363.363,0,1,0,0,.726H171.1a.363.363,0,0,0,0-.726Z" transform="translate(-164.932 -257.012)"/>
      </g>
    </g>
    <g id="Group_89" data-name="Group 89" transform="translate(71.282 10.84)">
      <g id="Group_88" data-name="Group 88">
        <path id="Path_193" data-name="Path 193" d="M171.1,302.208h-5.807a.363.363,0,1,0,0,.726H171.1a.363.363,0,1,0,0-.726Z" transform="translate(-164.932 -302.208)"/>
      </g>
    </g>
    <g id="Group_91" data-name="Group 91" transform="translate(71.282 12.461)">
      <g id="Group_90" data-name="Group 90">
        <path id="Path_194" data-name="Path 194" d="M171.1,347.4h-5.807a.363.363,0,1,0,0,.726H171.1a.363.363,0,0,0,0-.726Z" transform="translate(-164.932 -347.404)"/>
      </g>
    </g>
    <g id="Group_93" data-name="Group 93" transform="translate(71.282 14.082)">
      <g id="Group_92" data-name="Group 92">
        <path id="Path_195" data-name="Path 195" d="M169.215,392.6h-3.92a.363.363,0,1,0,0,.726h3.92a.363.363,0,1,0,0-.726Z" transform="translate(-164.932 -392.601)"/>
      </g>
    </g>
  </g>
</svg>
