<svg xmlns="http://www.w3.org/2000/svg" width="22.889" height="21.427" viewBox="0 0 22.889 21.427">
  <path id="promotion" d="M23.773,13.492V7.811A1.337,1.337,0,0,0,21.8,6.633L10.214,12.864H5.754A2.257,2.257,0,0,0,3.5,15.118v2.667a2.257,2.257,0,0,0,2.254,2.254H5.8l.982,6.118A2.072,2.072,0,0,0,8.832,27.9a2.1,2.1,0,0,0,.326-.025h0A2.077,2.077,0,0,0,10.874,25.5L10,20.04h.216L21.8,26.27a1.337,1.337,0,0,0,1.974-1.178V19.411a2.982,2.982,0,0,0,0-5.919ZM4.238,17.785V15.118A1.518,1.518,0,0,1,5.754,13.6H9.938v5.7H5.754A1.518,1.518,0,0,1,4.238,17.785Zm5.907,7.833a1.331,1.331,0,1,1-2.629.423l-.965-6h2.7Zm12.89-.526a.6.6,0,0,1-.293.517.587.587,0,0,1-.592.012L10.676,19.449v-6L22.15,7.283a.586.586,0,0,1,.591.012.6.6,0,0,1,.293.517v17.28Zm.738-6.423V14.236a2.246,2.246,0,0,1,0,4.432Z" transform="translate(-3.5 -6.472)"/>
</svg>
