<svg id="Layer_x0020_1" xmlns="http://www.w3.org/2000/svg" xmlns:xlink="http://www.w3.org/1999/xlink" width="42" height="42" viewBox="0 0 42 42">
  <defs>
    <linearGradient id="linear-gradient" x1="0.132" y1="0.161" x2="0.926" y2="0.762" gradientUnits="objectBoundingBox">
      <stop offset="0" stop-color="#28aae0"/>
      <stop offset="1" stop-color="#23b7ec"/>
    </linearGradient>
  </defs>
  <g id="_1639533987648">
    <path id="Path_185" data-name="Path 185" d="M21,0A21,21,0,1,1,0,21,21,21,0,0,1,21,0Z" fill-rule="evenodd" fill="url(#linear-gradient)"/>
    <g id="Group_78" data-name="Group 78" transform="translate(11.549 12.834)">
      <path id="Path_186" data-name="Path 186" d="M159.689,157.036l-2.99,15.073a1.107,1.107,0,0,1-1.568.544l-6.9-5.289-2.509-1.212-4.223-1.422s-.648-.23-.71-.732.732-.774.732-.774l16.788-6.585S159.689,156.033,159.689,157.036Z" transform="translate(-140.786 -156.457)" fill="#fefefe"/>
      <path id="Path_187" data-name="Path 187" d="M202.327,275.526l-2.938,2.678a.514.514,0,0,1-.481.065c-.37-.053-1.455-3.922-2.129-6.23l.564-.358Z" transform="translate(-192.187 -262.228)" fill="#b5d2e5"/>
      <path id="Path_188" data-name="Path 188" d="M198.909,202.979c-.4-.038-1.923-5.556-2.129-6.23l10.913-6.931c.568-.345.871-.073.382.383-.337.315-8.572,7.717-8.572,7.717Z" transform="translate(-192.187 -186.938)" fill="#d3e7f2"/>
    </g>
  </g>
</svg>
