<svg xmlns="http://www.w3.org/2000/svg" width="72.875" height="70.985" viewBox="0 0 72.875 70.985">
  <g id="Group_4" data-name="Group 4" transform="translate(-305.386 -71.79)">
    <g id="Group_1" data-name="Group 1" transform="translate(305.397 118.185)">
      <path id="Path_1" data-name="Path 1" d="M314.119,222.851c0-1.244-.614-2.727-3.541-2.727H305.42v8.922h1.8v-3.458h3.363C313.5,225.589,314.119,224.1,314.119,222.851Zm-6.9-1.043h3.107c1.89,0,2.047.5,2.047,1.055s-.156,1.043-2.047,1.043h-3.107Z" transform="translate(-305.42 -219.923)" fill="#1c1c1b"/>
      <path id="Path_2" data-name="Path 2" d="M348.3,225.3v-5.181h-1.795V225.3c0,1.55-.91,2.3-2.783,2.3s-2.783-.753-2.783-2.3v-5.181h-1.8V225.3c0,2.542,1.626,3.942,4.578,3.942S348.3,227.847,348.3,225.3Z" transform="translate(-328.551 -219.923)" fill="#1c1c1b"/>
      <path id="Path_3" data-name="Path 3" d="M385.637,226.364a2.313,2.313,0,0,0-1.082-2.025,1.982,1.982,0,0,0,.8-1.689c0-2.526-2.674-2.526-3.552-2.526h-5.1v8.922h4.556C382.68,229.046,385.637,229.046,385.637,226.364Zm-4.434-4.6c1.77,0,2.359.13,2.359.9,0,.252,0,.921-2.025.921H378.5v-1.819Zm.692,5.6h-3.4v-2.142h3.508c1.813,0,1.813.778,1.813,1.11C383.819,226.95,383.492,227.363,381.895,227.363Z" transform="translate(-354.311 -219.923)" fill="#1c1c1b"/>
      <path id="Path_4" data-name="Path 4" d="M421.388,227.363h-6.147v-7.239h-1.8v8.922h7.942Z" transform="translate(-379.513 -219.923)" fill="#1c1c1b"/>
      <rect id="Rectangle_2" data-name="Rectangle 2" width="1.795" height="8.922" transform="translate(43.635 0.201)" fill="#1c1c1b"/>
      <path id="Path_5" data-name="Path 5" d="M466.609,226.235l.191-.37-1.595-.777-.186.343a3.153,3.153,0,0,1-3.033,1.694c-2.071,0-3.308-1.061-3.308-2.839,0-2.069,1.113-3.162,3.218-3.162a2.926,2.926,0,0,1,3.006,1.638l.165.384,1.59-.733-.161-.366a4.753,4.753,0,0,0-4.611-2.563c-3.1,0-5.024,1.793-5.024,4.679,0,2.245,1.323,4.645,5.035,4.645A4.8,4.8,0,0,0,466.609,226.235Z" transform="translate(-409.29 -219.484)" fill="#1c1c1b"/>
      <rect id="Rectangle_3" data-name="Rectangle 3" width="1.795" height="8.922" transform="translate(59.582 0.201)" fill="#1c1c1b"/>
      <path id="Path_6" data-name="Path 6" d="M512.477,223.143c-1.648-.15-2.648-.291-2.648-.977,0-.908,1.485-1.043,2.37-1.043a3.442,3.442,0,0,1,2.963,1.214l.315.358,1.313-1.068-.222-.311a5.1,5.1,0,0,0-4.346-1.832c-3.663,0-4.21,1.778-4.21,2.838,0,2.133,2.376,2.363,4.285,2.548,1.683.162,2.786.323,2.786,1.044,0,1.176-2.288,1.211-2.549,1.211-2.239,0-2.911-.9-3.355-1.488l-.26-.346-1.088.928-.309.28.279.311a5.4,5.4,0,0,0,4.622,2c2.066,0,4.478-.758,4.478-2.894C516.9,223.546,514.448,223.323,512.477,223.143Z" transform="translate(-444.037 -219.484)" fill="#1c1c1b"/>
      <path id="Path_7" data-name="Path 7" d="M321.069,274.14h3.212a2.639,2.639,0,0,1-2.7,1.584c-2.043,0-3.263-1.061-3.263-2.839a2.832,2.832,0,0,1,3.173-3.162,2.992,2.992,0,0,1,2.851,1.6l.176.4,1.548-.816-.154-.347a4.54,4.54,0,0,0-4.387-2.473c-3.1,0-5.024,1.793-5.024,4.679,0,2.246,1.323,4.645,5.035,4.645a4.7,4.7,0,0,0,2.85-.793v.659h1.683v-4.818h-5Z" transform="translate(-313.017 -252.818)" fill="#1c1c1b"/>
      <path id="Path_8" data-name="Path 8" d="M365.228,271.4c0-1.219-.624-2.671-3.6-2.671H356.54v8.922h1.8v-3.592h2.576l2.61,3.592h2.231L363,273.937A2.555,2.555,0,0,0,365.228,271.4Zm-6.893-.988h3.073c1.731,0,2.069.358,2.069.976,0,.641-.329.988-2.069.988h-3.073Z" transform="translate(-340.482 -253.256)" fill="#1c1c1b"/>
      <path id="Path_9" data-name="Path 9" d="M395.138,268.084c-3.085,0-5.158,1.894-5.158,4.712,0,3.169,2.674,4.612,5.158,4.612s5.158-1.443,5.158-4.612C400.3,269.978,398.224,268.084,395.138,268.084Zm0,7.64a3.027,3.027,0,0,1-3.341-3.106c0-1.7,1.374-2.895,3.341-2.895s3.341,1.19,3.341,2.895A3.027,3.027,0,0,1,395.138,275.724Z" transform="translate(-363.418 -252.818)" fill="#1c1c1b"/>
      <path id="Path_10" data-name="Path 10" d="M436.463,273.9c0,1.55-.91,2.3-2.783,2.3s-2.783-.754-2.783-2.3v-5.181H429.1V273.9c0,2.542,1.626,3.942,4.578,3.942s4.578-1.4,4.578-3.942v-5.181h-1.8Z" transform="translate(-390.25 -253.256)" fill="#1c1c1b"/>
      <path id="Path_11" data-name="Path 11" d="M471.037,268.724h-5.158v8.922h1.8v-3.458h3.363c2.926,0,3.541-1.489,3.541-2.738S473.964,268.724,471.037,268.724Zm-3.363,1.683h3.106c1.89,0,2.047.5,2.047,1.054s-.157,1.044-2.047,1.044h-3.106Z" transform="translate(-415.475 -253.256)" fill="#1c1c1b"/>
      <path id="Path_12" data-name="Path 12" d="M501.043,273.865h5.22v-1.684h-5.22v-1.774h6.246v-1.683h-8.041v8.922h8.175v-1.684h-6.38Z" transform="translate(-438.362 -253.256)" fill="#1c1c1b"/>
    </g>
    <g id="Group_3" data-name="Group 3" transform="translate(305.386 71.79)">
      <g id="Group_2" data-name="Group 2">
        <path id="Path_13" data-name="Path 13" d="M365.63,133.983l-5.347-3.159a4.037,4.037,0,0,0,2.876-.967l1.628,1.988-1-2.464c1.082-.848,1.967-1.762,3.073-1.788,3.017-.074.9,3.548,2.006,3.56,1.233.011,2.57-4.034-.387-5.809-3.06-1.852-5.733.821-7.9.367l8.115-3.623H356.845l-.421-.8a3.918,3.918,0,0,0,4.7-.938l3.375.487-2.789-1.091c.667-.7,1.229-1.239,1.934-.969,1,.382,1.587,1.262,3.326,1.282,2.935.033,5.07-5.183,1.192-7.447.294,3.719-1.437,3.9-4.443,1.929l1.031-1.682-1.54,1.355c-2.888-1.285-4.3,1.268-5.511,2.1s-2.329-.828-3.807,1.136c2.2-.725,3.326,1.381,4.774,0-.6,3.731-2.743-1.136-4.879.725,1.851.139,2.819,1.8,4.292,1.8,2.716,0,.295-5.226,4.119-5.226l-.635-.407c2.169-.2,2.279,1.964,5.547,2,.338.492-.854.531-1.692.245-.137.7,4.437,2.251,3.338-2.947,1.441.781,1.127,4.051-.222,5.293-.262.241-.506.36-.668.108-.369-.556.575-.547.844-1.388a3.025,3.025,0,0,1-3.961-.287c-1.189-1.108-2.974-2.455-3.739-.124s-1.4,3.415-2.805,3.439c-1.934.032-3.984-3.212-6.13-1.419,4.1.38,5.07,6.9,8.68,6.985,2.805,0,3.438-1.232,5.263-1.232s3.746.964,3.746,3.371A3.485,3.485,0,0,1,369,130.66a4.757,4.757,0,0,0,.281-2.684,2.922,2.922,0,0,0-3.1-2.312c-2.252,0-4.064,3.689-6.57,3.689-5.015,0-6.3-9.669-11.549-8.181,3.862,2.609,4.285,6.783,6.362,8.384,2.107,1.622,4.614.959,6,2.182a3.977,3.977,0,0,1,.989,2.246h-.477a3,3,0,0,0-.838-1.269c-1.2-1.263-4.813-.709-6.472-2.5s-2.872-7.177-6.136-8c2.848,1.827,3.481,6.539,5.52,8.848s4.727,1.086,5.965,2.3a7.6,7.6,0,0,1,.57.624h-2.336a4,4,0,0,0-.675-.065,11.245,11.245,0,0,0-1.144.065h-3.221a2.662,2.662,0,0,1-1.163-.716c-1.617-1.707-1.467-3.5-1.338-5.622.313,1.992.7,6.572,4.121,6.058-4.306-1.471-1.8-8.85-7.065-10.743-.569-.208-.374-2.061,1.061-2.338-2.842.545-2.825-.495-.818-2.584-1.236.788-2.587.56-2.886,1.453,0,0,2.33,3.657,2.33,4.37a13.232,13.232,0,0,1-1.7,3.689,6.517,6.517,0,0,1-2.92.182,2.507,2.507,0,0,1-.849-2.211c.358-.762,3.24-1.389,3.292-2.518.037-.886-1.162-.972-1.122-.505.695.232.993,1.256-1.044,1.728l.46-.734s-1.509,1.206-1.586,1.257a1.145,1.145,0,0,1-.652.007c-.221-.07-2.4-1.117-2.03-2.154a6.468,6.468,0,0,0,2.311.288c1.66,0,1.808-.718,1.808-.718a7.225,7.225,0,0,1-3.573,0c-.716-.167.043-1.07.295-1.081h1.717c.1,0,.249-.239.014-.254-.173-.005-1.266-.033-1.352-.3-.145-.459-.44-3.331-.44-3.331s.375-.894.062-1.19-.459-.143-.459-.143c.712,3.988-2.346,6.472-4.094,5.992l-.206-.036a5.438,5.438,0,0,0,1.553.785,4.137,4.137,0,0,1-5.116-2.5c-.284.146-.292.921-.255,1.414a2.2,2.2,0,0,1-.466-2.717c-.832.4-.865.529-.865.529.033-.685,1.232-1.132,1.838-1.929a1.609,1.609,0,0,0-.815-2.542,2.282,2.282,0,0,1-1.768,2.485c-1.206.4-1-.695-2.12-.451,1.829.417,1.732,2.944,3.557,3.983-2.438-.572-2.859-3.886-5.826-3.558,1.707-2.431,4.4-.343,5.522-2.026-2.888.661-4.855-1.777-5.19-4.449-.51-4.091-3.964-2.074-3.907-4.091,1.738.784,5.593-2.2,6.729,1.2,1.192,3.549,3.6,4.994,5.759,3.354l-9.432-9.57,1.191,4.011c-2.463.486-5.434-.983-3.822-4.427-2.331-1.083-5.417,2.792-2.569,5.829,1.317,1.4,4.527.885,5.371,3.75l-3.056-.248,3.14.822.936,2.78-7.3-3.6,4.5,5.236c-2.629,1.392-3.282-2.593-6.683-2.508-2.379.057-5.042,2.508-3.934,5.373,3.557-2.156,4.7-.619,6.213.877l-2.193,1.17,2.593-.786a4.839,4.839,0,0,0,3.922,1.442c3.074-.229,5.786-1.221,6.481-.385.537.635-.079,1.013-1.188,1.013h-14.7l5.891,3.157c-.569.441-2.211,2.456-3.344,2.456s-3.68-1.745-4.355,1.309c2.619-.447,3.947,5.276,9.454.711l-2.576,4.261H305.386v1.464h72.791v-1.464Zm-2.88-17.305c1.352.582-2.832,4.656-4.116,4.506C361.309,120.39,361.4,116.092,362.75,116.678Zm.55,12.023c.947-2.522,3.914-3.606,5.14-1.4.06.11-.033.2-.248-.017-1.534-1.537-3.5-.077-4.732,1.524C363.284,129.037,363.227,128.894,363.3,128.7Zm-42.969-27.006c-.774,1.348-.623,3.807,2.478,4.538C317.613,107.387,317.744,101.489,320.331,101.695Zm-4.206,16.045a4.377,4.377,0,0,0-4.514.249C312.327,115.613,316.754,115.416,316.125,117.74Zm1.049-.942a2.7,2.7,0,0,0-1.055-1.022,4.366,4.366,0,0,0-1.55-.122c-.61.03-1.137.054-1.3-.324-.109-.246.007-.508.325-.739a2.531,2.531,0,0,1,1.282-.417,1.768,1.768,0,0,1,1.314.367c.3.27.424.291.477.266.077-.037.057-.216.05-.336-.013-.089-.026-.158.027-.15a2.692,2.692,0,0,1,1.705,1.194,4.306,4.306,0,0,0,4.6,1.747C322.355,119.7,318.427,118.974,317.175,116.8Zm2.213,3.323c-.146-1.066,5.206-1.855,5.249-.328C324.676,121.125,319.546,121.3,319.388,120.121Zm27.637,6.571c-1.774,3.813,2.6,6.2,3.418,6.959a2.3,2.3,0,0,1,.281.333h-1.476a3.748,3.748,0,0,0-1.411-1.836,7.99,7.99,0,0,1,.856,1.836h-.7C346.974,131.969,345.285,130.43,347.025,126.692Zm-.44,7.291h-.624l-.723-2.082A3.694,3.694,0,0,1,346.585,133.983Zm-1.785,0h-.683a5.15,5.15,0,0,0-.268-3.833C344.991,131.088,344.978,132.546,344.8,133.983Zm-1.213,0h-.611a3.768,3.768,0,0,0-.421-3.214A3.174,3.174,0,0,1,343.587,133.983Zm-4.528,0c.359-1.576-.292-2.057-1.622-3.476,2,1.374,2.718,2.322,2.586,3.476Zm1.622-2.765a4.292,4.292,0,0,1,1.3,2.765h-.607A5.472,5.472,0,0,0,340.68,131.218Zm-.106-2.7c.874,0,2.534-.047,2.58-.047.235,0,.282.077.292.118.006.089-.11.53-.286.575a10.03,10.03,0,0,1-5.173,0c-.173-.046-.3-.486-.282-.575.007-.041.051-.118.285-.118C337.99,128.466,339.7,128.513,340.574,128.513Zm-2.527-6.015c-.708.232-.828,1.376,1.228,1.842-.668.1-2.308-.208-2.358-1.337C336.874,122.117,338.073,122.032,338.047,122.5Zm-2.014,1.951a12.472,12.472,0,0,1,3.938,1.072,2.48,2.48,0,0,1-.851,2.211c-.471.14-2.772-.1-3.106-1.083,1.384.372,1.477-.146,1.477-.146a2.2,2.2,0,0,1-1.771-.867,1.573,1.573,0,0,0,1.46-.014s-1.918-.733-1.977-1.173Zm-1.912,2.129.047-.372c.126,4.573,3.451,5.3,3.451,7.573,0,.07-.007.136-.011.2h-.585a1.713,1.713,0,0,0-.361-1.237c-2.166-2.89-2.259-3.511-2.259-3.511.186,2.191,1.583,2.472,1.918,4.748h-.9C335.09,132.28,333.36,131.611,334.122,126.579Zm.2,7.4h-1.6l.853-1.373A3.517,3.517,0,0,1,334.321,133.983Zm-2.6,0h-1.049c1.574-2.928.7-7.683,2.053-9.146C331.783,126.533,333.27,130.629,331.722,133.983Zm.43-11.024c-.64.571-3.571,3.14-2.657,10.147.925-1.513.133-7.245,2.866-9.323-1.914,2.331-.9,6.46-2.283,10.2h-1.344C329.114,130.969,327.443,126.441,332.152,122.959Zm-5.392,11.024h-.62a12.716,12.716,0,0,0,1.136-2.221A4.892,4.892,0,0,1,326.76,133.983Zm3.029-12.077c.556.619-2.95,2.209-4.673,1.6C328,123.547,329.217,121.28,329.79,121.906Zm-4,2.308a5.192,5.192,0,0,0,3.661-1.154c-.2,1.429-1.716,1.921-3.643,1.921s-3.7-2.127-5.171-.706c2.581-.3,2.964,2.423,5.879,1.507-2.521,2.712-4.365-2.07-7.263-.687C320.719,121.593,323.813,124.215,325.789,124.215Zm-14.35,4.364c1.5-2.227,2.673.84,5.173-.865.832,1.311-1.208,2.129-2.4,1.4A3.191,3.191,0,0,0,311.439,128.578Zm7.316,1.587c-1.1.854-3.918,1.72-3.878-.122,2.927.567,3.6-3.59,6.206-2.365C320.425,127.8,319.841,129.321,318.755,130.165Zm8.184-.935a9.22,9.22,0,0,1-.589,3.573l-4.229,1.18h-3.769Z" transform="translate(-305.386 -91.919)" fill="#ba9765"/>
        <path id="Path_14" data-name="Path 14" d="M421.866,135.171c-2.04.223-1.719,2.991-.185,2.991s1.759-.714,2.921-.714,1.574.761,2.508.761,1.48-.667,1.062-1.251c-.6.984-1.672-.357-2.457-.357a4.656,4.656,0,0,0-2.5.892c-.881.449-1.722.024-1.393-.493C421.144,136.989,420.707,136.152,421.866,135.171Z" transform="translate(-384.294 -115.262)" fill="#ba9765"/>
        <path id="Path_15" data-name="Path 15" d="M440.884,99.643c-1.973,2.93.64,5.938-3.5,6.978,4.918.05,2.361-4.142,4.156-6.556s3.829-1.521,4.485-4.313C444.991,98.023,442.011,97.961,440.884,99.643Z" transform="translate(-395.92 -88.225)" fill="#ba9765"/>
        <path id="Path_16" data-name="Path 16" d="M427.787,119.1c-1.126-1.106-.619-3.089-.619-3.089S425.393,118.242,427.787,119.1Z" transform="translate(-388.479 -102.124)" fill="#ba9765"/>
        <path id="Path_17" data-name="Path 17" d="M446,104c-1.58,2.346.241,5.744-3.072,6.728,4.173.1,2.17-4.728,3.677-6.4,1.318-1.923,2.523-1.592,3.146-3.639C448.869,102.321,446.9,102.657,446,104Z" transform="translate(-399.722 -91.609)" fill="#ba9765"/>
        <path id="Path_18" data-name="Path 18" d="M459.372,133.425a4,4,0,0,0-5.5,2.82,26.507,26.507,0,0,0,2.722-2.236C457.534,133.393,458.988,133.768,459.372,133.425Z" transform="translate(-407.231 -113.824)" fill="#ba9765"/>
        <path id="Path_19" data-name="Path 19" d="M445.544,149.207c.248.554,1.275-.68,2.825-.207C447.619,148.491,445.406,148.5,445.544,149.207Z" transform="translate(-401.512 -124.501)" fill="#ba9765"/>
        <path id="Path_20" data-name="Path 20" d="M466.482,128.688c-.728,3.382-7.073.88-7.02,5.7C460.806,132,467.032,132.212,466.482,128.688Z" transform="translate(-411.062 -110.815)" fill="#ba9765"/>
        <path id="Path_21" data-name="Path 21" d="M441.839,153.919c.119.723,1.391-.781,3.828.266C444.829,152.971,441.656,152.856,441.839,153.919Z" transform="translate(-398.97 -127.622)" fill="#ba9765"/>
        <path id="Path_22" data-name="Path 22" d="M423.3,107.695c-2.458-4.036,3.3-4.964,1.676-8.3C425.187,102.005,419.652,104.695,423.3,107.695Z" transform="translate(-385.405 -90.726)" fill="#ba9765"/>
        <path id="Path_23" data-name="Path 23" d="M423.535,175.617c-.331.235-1.124.464-1.743.88-.063.108-.168.49-.308.58A2.314,2.314,0,0,0,423.535,175.617Z" transform="translate(-385.015 -143.002)" fill="#ba9765"/>
        <path id="Path_24" data-name="Path 24" d="M395.865,145.832c-.957-.194-2.1.77-3.207,1.284,1.043,1.5,3.462,1.622,4.433,2.156C397.308,148.939,398.044,146.264,395.865,145.832Zm-1.116,2.44a1.085,1.085,0,0,1,.742-2.005A7.248,7.248,0,0,0,394.748,148.272Zm.755.229a6.007,6.007,0,0,0,.815-1.765A1,1,0,0,1,395.5,148.5Z" transform="translate(-365.244 -122.556)" fill="#ba9765"/>
        <path id="Path_25" data-name="Path 25" d="M396.616,137.544c-1.05,1.238-1.8-.12-3.133-.12-1.147-.014-2.481,1.272-2.712.443-.182-.642,1-1.717,2.536-1.833a3.726,3.726,0,0,0-3.841,2.167,2.1,2.1,0,0,1-.772-.075c.537,2.258,2.812-.049,3.883-.049C393.543,138.076,396.557,140.256,396.616,137.544Z" transform="translate(-362.525 -115.808)" fill="#ba9765"/>
        <path id="Path_26" data-name="Path 26" d="M412.955,79.81l1.143,2.984a5.468,5.468,0,0,0-1.044,3.387c0,4.254,3.488,4.651,3.246,2.935-2.451,1.12-2.57-2.426-1.9-3.176a2.2,2.2,0,0,0,1.192,2.534c-2.185-3.619,2.12-5,2.12-7.884,0-2.408-1.48-3.191-1.447-5.4.039-2.659,3.952-3.353,3.991-2.33.033.731-2.843.814-2.888,3.557-.044,2.569,2.828,3.187,2.765,5.686-.046,1.634-2.978,3.146-1.149,6.219l4.165-11.747-3.192,3.6c-1.02-1.273-1.822-1.393-1.822-3.678s2.547-2.62,2.547-3.687c0-.857-1.278-.975-2.211-1.019a3.978,3.978,0,0,0-3.991,3.84c0,2.664,1.8,4.011.013,6.509Zm3.766-.575c1.138,3.6-2.609,4.56-2.921,6.939C413.568,83.3,417.161,81.934,416.721,79.234Z" transform="translate(-379.165 -71.79)" fill="#ba9765"/>
        <path id="Path_27" data-name="Path 27" d="M393.567,154.767c-.59-.4-2.69-.337-3.868-1.542a.618.618,0,0,0,.023.455,1.609,1.609,0,0,0-1.041,1.958s.947-1.152,1.547-1.131a2.592,2.592,0,0,0,.135,1.343l.126.2C389.983,154.138,393.567,154.767,393.567,154.767Z" transform="translate(-362.479 -127.644)" fill="#ba9765"/>
        <path id="Path_28" data-name="Path 28" d="M370.223,85.366l2.624,1.255a5.144,5.144,0,0,0,1.367,2.917c1.017,1.19,3.792,1.541,3.908,4.341.845-.85.183-2.814-1.7-3.929-7.038-4.133,4.8-10.61-2.8-12.931,6.573-.442,3.769,5.5,4.295,7.886.726,3.29,3.763,2.494,5.389,4.553l-1.785-9.986-1.7,6.96c-2.239-.33-1.448-3.506-1.388-6.382.109-5.458-9.227-3.9-7.962-.821.477,1.166,3.638-1.446,3.657,1.316.017,1.878-1.157,3.508-1.289,5.35Zm.888-6.573c-.639-.776,2.521-1.644,3.1.3C372.647,78.074,371.409,79.156,371.111,78.793Z" transform="translate(-349.856 -74.975)" fill="#ba9765"/>
        <path id="Path_29" data-name="Path 29" d="M389.645,102.114c-3.1,5.866,7.624,3.2,6.228,8.185C398.129,104.908,388.472,107.91,389.645,102.114Z" transform="translate(-362.789 -92.589)" fill="#ba9765"/>
        <path id="Path_30" data-name="Path 30" d="M456.346,169.549c1.783-.039,3.194-1.8,4.2-2.44-1.449.333-2.211,1.623-4.2,1.669-3.268.064-4.97-9.171-10.538-7.286C451.544,161.943,451.412,169.663,456.346,169.549Z" transform="translate(-401.698 -133.14)" fill="#ba9765"/>
        <path id="Path_31" data-name="Path 31" d="M390.38,95.578a.8.8,0,0,1-.433-.134c-.738-.466-1.13-1.74-1.878-1.6.434.335.24,1.534.856,2.2a1.574,1.574,0,0,0,1.194.538,1.59,1.59,0,0,0,1.594-1.594,1.572,1.572,0,0,0-.616-1.258,13.764,13.764,0,0,0-3.7-1.524c-5.554-1.887,2.762-7.523-1.067-10.678,2.1,4.538-4.034,7.234-.845,10.415,1.384,1.441,4.412,1.223,5.451,2.249a.808.808,0,0,1-.557,1.391Z" transform="translate(-359.681 -78.466)" fill="#ba9765"/>
        <path id="Path_32" data-name="Path 32" d="M380.754,132.94a3.54,3.54,0,0,1-3.166-1.849C377.069,132.317,378.662,135.609,380.754,132.94Z" transform="translate(-354.84 -112.463)" fill="#ba9765"/>
        <path id="Path_33" data-name="Path 33" d="M425.01,178.5c-.063.159-.511.334-1.42.681a2.462,2.462,0,0,1-.683.714C423.994,180.191,425.2,179.087,425.01,178.5Z" transform="translate(-385.991 -144.977)" fill="#ba9765"/>
        <path id="Path_34" data-name="Path 34" d="M444.3,145.89c.228.376.562-.338,1.179-.677C444.673,145.1,444.179,145.686,444.3,145.89Z" transform="translate(-400.649 -122.14)" fill="#ba9765"/>
        <path id="Path_35" data-name="Path 35" d="M431.867,146.179c-1.106-.511-2.244-1.478-3.2-1.284-2.189.434-1.45,3.108-1.235,3.442C428.41,147.8,430.827,147.681,431.867,146.179Zm-2.089,1.112s-.659-1.853-.742-2.007A1.086,1.086,0,0,1,429.778,147.291Zm-1.573-1.537a6.082,6.082,0,0,0,.815,1.764A1,1,0,0,1,428.2,145.754Z" transform="translate(-388.893 -121.914)" fill="#ba9765"/>
        <path id="Path_36" data-name="Path 36" d="M452.3,112.838c-.981,1.074-.912,1.955-2.375,2.892,1.91.822,1.96-1.706,3.868-2.256,1.3-.38,2.292,1.191,4.154.339s1.2-4.309,2.1-5.834,3.4-2.942,5.173.128c0,0-2.986-2.939-4.391.568.975-.812,2.421-1.061,2.421-.281-.766.244-2,.695-2.041,3.436-.046,3.191-1.334,3.88-2.338,4.538-1.447.958-4.816.908-5.563,3.084l11.681-5.212H461.42c.463-2.614-.553-6.506,4.329-5.6.6-1.3-3.464-5.461-6.995-.712l-.338-1.2C457.677,113.053,454.335,110.6,452.3,112.838Zm6.176-3.166c.6,1.032-1.192,2.894-1.192,2.894a.531.531,0,0,1-.136,1.018c-1.059.312-1.9-.88-3.259-.532C454.166,112.566,456.994,112.671,458.472,109.672Z" transform="translate(-404.519 -95.054)" fill="#ba9765"/>
        <path id="Path_37" data-name="Path 37" d="M374.386,128.71c-4.925.082-1.3-5.319-4.975-6.114,1.894,1.277.855,2.423.868,4.489C370.3,129.577,373.279,130.331,374.386,128.71Z" transform="translate(-349.299 -106.637)" fill="#ba9765"/>
        <path id="Path_38" data-name="Path 38" d="M433.722,94.149c-.57,1.54-2.146,1.976-2.918,3.312a5.144,5.144,0,0,0,3.567-1.941c.814-1.387.017-5.429,2.64-6.415,2.743-1.037,5.614-2.56,2.371-5.869,4.974,1.26,2.18,6.567,1.59,7.346-.563.721-2.395,2.174-2.395,4.5,0,1.727-1.55,3.7-2.758,3.936,1.274.517,3.182-2.4,3.182-2.4l6.2-8.02-3.567,1.841s.978-.844.978-3.64c0-3.955-4.247-4.663-4.207-3.435.033.817,1.444,1.4,1.491,2.739s-1.844,2.107-3.316,2.534l-.658-2.21v2.485C433.511,90.16,434.321,92.53,433.722,94.149Z" transform="translate(-391.407 -79.354)" fill="#ba9765"/>
      </g>
    </g>
  </g>
</svg>
