<svg id="Icons" xmlns="http://www.w3.org/2000/svg" width="42.557" height="42.557" viewBox="0 0 42.557 42.557">
  <g id="Social-Media-Collection">
    <g id="Whatsapp">
      <path id="Fill-232" d="M32.809,31.208a2.713,2.713,0,0,1-1.779,1.253,3.626,3.626,0,0,1-1.66-.1,15.355,15.355,0,0,1-1.5-.556,11.753,11.753,0,0,1-4.5-3.978A5.123,5.123,0,0,1,22.289,25.1a2.953,2.953,0,0,1,.923-2.2.968.968,0,0,1,.7-.33c.176,0,.351,0,.505.009s.379-.061.593.452.746,1.825.813,1.956a.487.487,0,0,1,.021.461,1.814,1.814,0,0,1-.263.44c-.132.153-.277.343-.395.461s-.27.274-.116.537a7.955,7.955,0,0,0,1.466,1.825,7.239,7.239,0,0,0,2.12,1.309c.263.132.418.109.571-.066s.66-.769.835-1.033.351-.219.593-.132,1.537.725,1.8.858.439.2.505.307a2.213,2.213,0,0,1-.154,1.253m-5.156-12.53A8.767,8.767,0,0,0,20.222,32.1l.209.331-.886,3.234,3.318-.87.319.189a8.741,8.741,0,0,0,4.462,1.222h0a8.767,8.767,0,0,0,0-17.534" transform="translate(-6.326 -6.258)" fill="#67d449" fill-rule="evenodd"/>
      <g id="Fill-324">
        <path id="Fill-233" d="M21.322,31.734h0a10.524,10.524,0,0,1-5.04-1.283l-5.592,1.467,1.5-5.465a10.548,10.548,0,1,1,9.139,5.281M21.279,0A21.279,21.279,0,1,0,42.557,21.279,21.278,21.278,0,0,0,21.279,0" fill="#67d449" fill-rule="evenodd"/>
      </g>
    </g>
  </g>
</svg>
