<svg xmlns="http://www.w3.org/2000/svg" width="18.184" height="21.07" viewBox="0 0 18.184 21.07">
  <g id="Line" transform="translate(-5.023 -2)">
    <path id="Path_134" data-name="Path 134" d="M14.111,2A7.179,7.179,0,0,0,6.928,9.175v5.6l-1.59,2.392a1.951,1.951,0,0,0,1.623,3.013h14.3a1.951,1.951,0,0,0,1.623-3.028l-1.59-2.377v-5.6A7.179,7.179,0,0,0,14.111,2Z"/>
    <path id="Path_135" data-name="Path 135" d="M21.076,43.93A2.894,2.894,0,0,0,23.8,42H18.35A2.894,2.894,0,0,0,21.076,43.93Z" transform="translate(-6.965 -20.859)"/>
  </g>
</svg>
