<svg xmlns="http://www.w3.org/2000/svg" width="21.071" height="21.07" viewBox="0 0 21.071 21.07">
  <g id="XMLID_1441_" transform="translate(0 -0.011)">
    <g id="XMLID_561_" transform="translate(0 0.011)">
      <path id="XMLID_592_" d="M19.837,11.368h-.412V8.487a2.391,2.391,0,0,0-1.862-2.328L15.69,2.915a2.056,2.056,0,0,0-2.371-.941L11.957.612a2.058,2.058,0,0,0-2.907,0L3.562,6.1H2.387A2.39,2.39,0,0,0,0,8.487V18.694a2.39,2.39,0,0,0,2.387,2.387H7.861a.412.412,0,0,0,0-.823H2.387A1.566,1.566,0,0,1,.823,18.694V8.487A1.566,1.566,0,0,1,2.387,6.924H17.038A1.566,1.566,0,0,1,18.6,8.487v2.881H15.556a2.222,2.222,0,1,0,0,4.445H18.6v2.881a1.566,1.566,0,0,1-1.564,1.564H11.564a.412.412,0,1,0,0,.823h5.474a2.39,2.39,0,0,0,2.387-2.387V15.813h.412a1.236,1.236,0,0,0,1.235-1.235V12.6A1.236,1.236,0,0,0,19.837,11.368ZM14.229,2.752a1.224,1.224,0,0,1,.748.574l1.6,2.774H7.708l5.586-3.225a1.224,1.224,0,0,1,.935-.123Zm-4.6-1.559a1.232,1.232,0,0,1,1.743,0L12.541,2.36,6.062,6.1H4.726ZM20.248,14.578a.412.412,0,0,1-.412.412h-4.28a1.4,1.4,0,0,1,0-2.8h4.28a.412.412,0,0,1,.412.412Z" transform="translate(0 -0.011)" fill="#1d1d25"/>
      <path id="XMLID_1063_" d="M366.721,319.988a.391.391,0,1,0,.276.114A.393.393,0,0,0,366.721,319.988Z" transform="translate(-351.223 -306.792)" fill="#1d1d25"/>
      <path id="XMLID_1068_" d="M226.391,491.988a.391.391,0,1,0,.276.115A.393.393,0,0,0,226.391,491.988Z" transform="translate(-216.68 -471.699)" fill="#1d1d25"/>
    </g>
  </g>
</svg>
