<svg id="wallet" xmlns="http://www.w3.org/2000/svg" width="21.379" height="21.07" viewBox="0 0 21.379 21.07">
  <path id="Path_33" data-name="Path 33" d="M33.669,12.752l-1.512-2.5a1.826,1.826,0,0,0-2.367-.706c-.053.023-5.2,3.211-5.2,3.211Z" transform="translate(-16.729 -7.465)" fill="#1d1d25"/>
  <path id="Path_34" data-name="Path 34" d="M17.468,9.688S23.622,5.86,23.756,5.8l-.89-.878a1.774,1.774,0,0,0-2.5-.015L15.41,9.688Z" transform="translate(-11.054 -4.4)" fill="#1d1d25"/>
  <path id="Path_35" data-name="Path 35" d="M45.586,33.62H40.673a2.333,2.333,0,1,0,0,4.665h4.913a1.023,1.023,0,0,0,1.023-1.023V34.647a1.026,1.026,0,0,0-1.023-1.027ZM41.7,35.674a.382.382,0,1,1-.382.382.382.382,0,0,1,.382-.382Z" transform="translate(-25.23 -22.465)" fill="#1d1d25"/>
  <path id="Path_36" data-name="Path 36" d="M19.443,30.783a3.1,3.1,0,0,1,0-6.192h3.963V22.159A1.91,1.91,0,0,0,21.5,20.25H5.909A1.91,1.91,0,0,0,4,22.159v11.2a1.91,1.91,0,0,0,1.909,1.909H21.5a1.91,1.91,0,0,0,1.909-1.909V30.783C22.944,30.78,19.978,30.786,19.443,30.783Z" transform="translate(-4 -14.199)" fill="#1d1d25"/>
</svg>
