<svg xmlns="http://www.w3.org/2000/svg" width="21.618" height="18.019" viewBox="0 0 21.618 18.019">
  <path id="share" d="M8.595,7.171a3.6,3.6,0,1,0,2.78,5.884l4.841,3.228a3.6,3.6,0,1,0,.4-.6l-4.842-3.228a3.583,3.583,0,0,0,0-3.371l4.842-3.228a3.609,3.609,0,1,0-.4-.6L11.374,8.486a3.594,3.594,0,0,0-2.78-1.315Zm10.8,7.919a2.88,2.88,0,1,1-2.88,2.88,2.88,2.88,0,0,1,2.88-2.88Zm0-14.4a2.88,2.88,0,1,1-2.88,2.88,2.88,2.88,0,0,1,2.88-2.88ZM8.595,13.65a2.88,2.88,0,1,1,2.88-2.88,2.88,2.88,0,0,1-2.88,2.88Z" transform="translate(21.574 -4.993) rotate(90)"/>
</svg>
