<svg xmlns="http://www.w3.org/2000/svg" width="18.735" height="21.644" viewBox="0 0 18.735 21.644">
  <g id="Layer_2_00000070094912104080191440000008426906082289936021_" transform="translate(-34.4)">
    <g id="Social_Icon" transform="translate(34.4)">
      <g id="Avatar">
        <path id="Path_136" data-name="Path 136" d="M50.679,259.889H36.852A2.429,2.429,0,0,1,34.4,257.5v-1.055a9.054,9.054,0,0,1,3.069-6.776,2.486,2.486,0,0,1,2.955-.239,6.492,6.492,0,0,0,6.688,0,2.486,2.486,0,0,1,2.955.239,9.039,9.039,0,0,1,3.069,6.776V257.5A2.427,2.427,0,0,1,50.679,259.889ZM39.1,249.873a1.607,1.607,0,0,0-1.069.4,8.248,8.248,0,0,0-2.794,6.166V257.5a1.591,1.591,0,0,0,1.606,1.566H50.675a1.586,1.586,0,0,0,1.606-1.566v-1.055a8.255,8.255,0,0,0-2.794-6.166,1.623,1.623,0,0,0-1.928-.157,7.346,7.346,0,0,1-7.6,0A1.584,1.584,0,0,0,39.1,249.873Z" transform="translate(-34.4 -238.246)" fill="#1d1d25"/>
        <path id="Path_137" data-name="Path 137" d="M132.551,10.634A5.446,5.446,0,0,1,127,5.317a5.556,5.556,0,0,1,11.1,0A5.448,5.448,0,0,1,132.551,10.634Zm0-9.806a4.6,4.6,0,0,0-4.69,4.493,4.695,4.695,0,0,0,9.38,0A4.6,4.6,0,0,0,132.551.828Z" transform="translate(-123.183)" fill="#1d1d25"/>
      </g>
    </g>
  </g>
</svg>
