<svg xmlns="http://www.w3.org/2000/svg" width="21.529" height="12.18" viewBox="0 0 21.529 12.18">
  <g id="eye" transform="translate(-4.002 -16.161)">
    <path id="Path_159" data-name="Path 159" d="M14.767,16.162A13.289,13.289,0,0,0,4.5,20.8a2.383,2.383,0,0,0,0,2.908,13.289,13.289,0,0,0,10.27,4.634A13.289,13.289,0,0,0,25.037,23.7a2.383,2.383,0,0,0,0-2.908,13.289,13.289,0,0,0-10.27-4.634Zm9.68,7.05a12.523,12.523,0,0,1-9.68,4.359,12.523,12.523,0,0,1-9.68-4.359,1.62,1.62,0,0,1,0-1.922,12.523,12.523,0,0,1,9.68-4.359,12.523,12.523,0,0,1,9.68,4.359A1.62,1.62,0,0,1,24.447,23.212Z" fill="#1d1d25"/>
    <path id="Path_160" data-name="Path 160" d="M25.947,22.166a3.781,3.781,0,1,0,3.781,3.781,3.781,3.781,0,0,0-3.781-3.781Zm0,6.793a3.012,3.012,0,1,1,3.012-3.012,3.012,3.012,0,0,1-3.012,3.012Z" transform="translate(-11.18 -3.696)" fill="#1d1d25"/>
  </g>
</svg>
