<svg xmlns="http://www.w3.org/2000/svg" width="22.152" height="20.643" viewBox="0 0 22.152 20.643">
  <g id="promotion_1_" data-name="promotion (1)" transform="translate(-6.5 -9.463)">
    <path id="Path_142" data-name="Path 142" d="M15.9,61.6l1,6.209a1.378,1.378,0,1,0,2.721-.438L18.691,61.6Z" transform="translate(-7.007 -38.862)"/>
    <path id="Path_143" data-name="Path 143" d="M85.873,38.016V42.6a2.324,2.324,0,0,0,0-4.585Z" transform="translate(-59.163 -21.283)"/>
    <path id="Path_144" data-name="Path 144" d="M8.068,41.338H12.4v-5.9H8.068A1.57,1.57,0,0,0,6.5,37.009v2.76A1.57,1.57,0,0,0,8.068,41.338Z" transform="translate(0 -19.363)"/>
    <path id="Path_145" data-name="Path 145" d="M45.14,28.5a.617.617,0,0,0,.3-.535V10.087a.616.616,0,0,0-.3-.535.606.606,0,0,0-.611-.012L32.657,15.924v6.2l11.87,6.383A.608.608,0,0,0,45.14,28.5Z" transform="translate(-19.497)"/>
  </g>
</svg>
