<svg id="gelir_ortaklari" xmlns="http://www.w3.org/2000/svg" width="158.297" height="26.514" viewBox="0 0 158.297 26.514">
  <g id="Group_288" data-name="Group 288" transform="translate(52.535)">
    <path id="Path_99" data-name="Path 99" d="M238.065,308.829V296.7a12.132,12.132,0,1,0,9.621,4.748Z" transform="translate(-225.927 -294.451)" fill="#989898"/>
    <path id="Path_100" data-name="Path 100" d="M296.163,291.16a12.1,12.1,0,0,0-9.621-4.748v12.126Z" transform="translate(-273.276 -286.412)" fill="#006dd6"/>
  </g>
  <path id="Path_102" data-name="Path 102" d="M9.144-30.861a7.476,7.476,0,0,0-7.791,7.813A7.474,7.474,0,0,0,9.166-15.26a7.5,7.5,0,0,0,7.376-5.278v-3.47H8.424v2.75h4.737a3.673,3.673,0,0,1-3.71,2.706c-2.684,0-4.3-1.659-4.3-4.5,0-2.661,1.593-4.365,3.992-4.365a3.209,3.209,0,0,1,3.012,1.571h4.126C15.472-28.984,12.81-30.861,9.144-30.861Zm14.4,6.132a2.1,2.1,0,0,1,2.289,2.095H21.168a2.308,2.308,0,0,1,2.379-2.095ZM29.375-19.4H25.4a1.984,1.984,0,0,1-1.942,1.178,2.257,2.257,0,0,1-2.313-2.335h8.445a9.43,9.43,0,0,0,.065-1.091,5.739,5.739,0,0,0-6.068-6.068,5.848,5.848,0,0,0-6.154,6.263,5.872,5.872,0,0,0,6.155,6.264A5.694,5.694,0,0,0,29.375-19.4Zm1.81,4.037h3.732V-31.515H31.185Zm6,0h3.732V-27.544H37.186Zm1.876-13.443a2.055,2.055,0,0,0,1.534-.53,2.055,2.055,0,0,0,.671-1.478,2.058,2.058,0,0,0-.664-1.491,2.058,2.058,0,0,0-1.54-.539,2.065,2.065,0,0,0-1.553.533,2.065,2.065,0,0,0-.673,1.5,2.061,2.061,0,0,0,.68,1.484A2.061,2.061,0,0,0,39.062-28.809Zm7.856,7.791c0-2.095,1.026-2.706,2.793-2.706h1.026v-3.95a4.54,4.54,0,0,0-3.819,2.16v-2.03H43.187v12.177h3.732Z" transform="translate(-1.353 36.822)" fill="#989898"/>
  <path id="Path_101" data-name="Path 101" d="M6.274-19.843c0-2.095,1.026-2.706,2.793-2.706h1.026V-26.5a4.54,4.54,0,0,0-3.819,2.16v-2.03H2.542v12.177H6.274Zm5.761,1.418c0,3.164,1.769,4.234,4.3,4.234h1.9v-3.164H16.9c-.829,0-1.135-.306-1.135-1.026v-4.888h2.444v-3.1H15.767v-2.968H12.035v2.968H10.551v3.1h1.484ZM19.126-20.3c0,3.841,2.38,6.285,5.348,6.285a4.306,4.306,0,0,0,3.775-1.9v1.724h3.732V-26.368H28.249v1.724a4.238,4.238,0,0,0-3.753-1.9C21.506-26.543,19.126-24.145,19.126-20.3Zm9.122.022a2.719,2.719,0,0,1-2.661,3.012A2.75,2.75,0,0,1,22.925-20.3a2.711,2.711,0,0,1,2.661-2.99,2.72,2.72,0,0,1,2.662,3.012Zm6,6.089h3.732V-19.3l3.712,5.106H46.32l-5.109-6.068,5.063-6.11h-4.6l-3.688,4.954V-30.34H34.25Zm13.05,0h3.732V-30.34H47.3Zm5.259-6.11c0,3.841,2.379,6.285,5.347,6.285a4.306,4.306,0,0,0,3.775-1.9v1.724h3.732V-26.368H61.681v1.724a4.238,4.238,0,0,0-3.753-1.9C54.938-26.543,52.559-24.145,52.559-20.3Zm9.122.022a2.719,2.719,0,0,1-2.661,3.012A2.75,2.75,0,0,1,56.359-20.3a2.711,2.711,0,0,1,2.661-2.99A2.719,2.719,0,0,1,61.681-20.28Zm9.733.436c0-2.095,1.026-2.706,2.793-2.706h1.026V-26.5a4.54,4.54,0,0,0-3.819,2.16v-2.03H67.683v12.177h3.732Zm5.456,5.652H80.6V-26.368H76.87Z" transform="translate(77.695 35.647)" fill="#006dd6"/>
</svg>
